<mxfile host="Electron" modified="2024-05-24T11:54:00.190Z" agent="Mozilla/5.0 (Windows NT 10.0; Win64; x64) AppleWebKit/537.36 (KHTML, like Gecko) draw.io/21.7.5 Chrome/114.0.5735.289 Electron/25.8.1 Safari/537.36" etag="F_Ef85_NdqB1b5nts7dn" version="21.7.5" type="device">
  <diagram id="C5RBs43oDa-KdzZeNtuy" name="Page-1">
    <mxGraphModel dx="3871" dy="1607" grid="1" gridSize="10" guides="1" tooltips="1" connect="1" arrows="1" fold="1" page="1" pageScale="1" pageWidth="827" pageHeight="1169" math="0" shadow="0">
      <root>
        <mxCell id="WIyWlLk6GJQsqaUBKTNV-0" />
        <mxCell id="WIyWlLk6GJQsqaUBKTNV-1" parent="WIyWlLk6GJQsqaUBKTNV-0" />
        <mxCell id="zkfFHV4jXpPFQw0GAbJ--0" value="Empresa" style="swimlane;fontStyle=2;align=center;verticalAlign=top;childLayout=stackLayout;horizontal=1;startSize=26;horizontalStack=0;resizeParent=1;resizeLast=0;collapsible=1;marginBottom=0;rounded=0;shadow=0;strokeWidth=1;" parent="WIyWlLk6GJQsqaUBKTNV-1" vertex="1">
          <mxGeometry x="220" y="120" width="290" height="170" as="geometry">
            <mxRectangle x="230" y="140" width="160" height="26" as="alternateBounds" />
          </mxGeometry>
        </mxCell>
        <mxCell id="zkfFHV4jXpPFQw0GAbJ--4" value="" style="line;html=1;strokeWidth=1;align=left;verticalAlign=middle;spacingTop=-1;spacingLeft=3;spacingRight=3;rotatable=0;labelPosition=right;points=[];portConstraint=eastwest;" parent="zkfFHV4jXpPFQw0GAbJ--0" vertex="1">
          <mxGeometry y="26" width="290" height="8" as="geometry" />
        </mxCell>
        <mxCell id="zkfFHV4jXpPFQw0GAbJ--5" value="+registrarCliente(creadorCliente:CreadorCliente,Â &#xa;nombre:String, numeroTelefono:String, identificacion:&#xa;String):Cliente&#xa;+cantidadUsuarios():Integer&#xa;+existeUsuario(persona:Cliente):Boolean&#xa;" style="text;align=left;verticalAlign=top;spacingLeft=4;spacingRight=4;overflow=hidden;rotatable=0;points=[[0,0.5],[1,0.5]];portConstraint=eastwest;" parent="zkfFHV4jXpPFQw0GAbJ--0" vertex="1">
          <mxGeometry y="34" width="290" height="126" as="geometry" />
        </mxCell>
        <mxCell id="zkfFHV4jXpPFQw0GAbJ--6" value="Primero" style="swimlane;fontStyle=0;align=center;verticalAlign=top;childLayout=stackLayout;horizontal=1;startSize=26;horizontalStack=0;resizeParent=1;resizeLast=0;collapsible=1;marginBottom=0;rounded=0;shadow=0;strokeWidth=1;" parent="WIyWlLk6GJQsqaUBKTNV-1" vertex="1">
          <mxGeometry x="-540" y="690" width="180" height="80" as="geometry">
            <mxRectangle x="130" y="380" width="160" height="26" as="alternateBounds" />
          </mxGeometry>
        </mxCell>
        <mxCell id="zkfFHV4jXpPFQw0GAbJ--9" value="" style="line;html=1;strokeWidth=1;align=left;verticalAlign=middle;spacingTop=-1;spacingLeft=3;spacingRight=3;rotatable=0;labelPosition=right;points=[];portConstraint=eastwest;" parent="zkfFHV4jXpPFQw0GAbJ--6" vertex="1">
          <mxGeometry y="26" width="180" height="8" as="geometry" />
        </mxCell>
        <mxCell id="zkfFHV4jXpPFQw0GAbJ--10" value="+obtenerNumeroLibre():String" style="text;align=left;verticalAlign=top;spacingLeft=4;spacingRight=4;overflow=hidden;rotatable=0;points=[[0,0.5],[1,0.5]];portConstraint=eastwest;fontStyle=0" parent="zkfFHV4jXpPFQw0GAbJ--6" vertex="1">
          <mxGeometry y="34" width="180" height="26" as="geometry" />
        </mxCell>
        <mxCell id="zkfFHV4jXpPFQw0GAbJ--13" value="Random" style="swimlane;fontStyle=0;align=center;verticalAlign=top;childLayout=stackLayout;horizontal=1;startSize=26;horizontalStack=0;resizeParent=1;resizeLast=0;collapsible=1;marginBottom=0;rounded=0;shadow=0;strokeWidth=1;" parent="WIyWlLk6GJQsqaUBKTNV-1" vertex="1">
          <mxGeometry x="-311" y="692" width="180" height="78" as="geometry">
            <mxRectangle x="340" y="380" width="170" height="26" as="alternateBounds" />
          </mxGeometry>
        </mxCell>
        <mxCell id="zkfFHV4jXpPFQw0GAbJ--15" value="" style="line;html=1;strokeWidth=1;align=left;verticalAlign=middle;spacingTop=-1;spacingLeft=3;spacingRight=3;rotatable=0;labelPosition=right;points=[];portConstraint=eastwest;" parent="zkfFHV4jXpPFQw0GAbJ--13" vertex="1">
          <mxGeometry y="26" width="180" height="8" as="geometry" />
        </mxCell>
        <mxCell id="Xx8eTzvYltPEu-yEGiP8-4" value="+obtenerNumeroLibre():String" style="text;html=1;align=center;verticalAlign=middle;resizable=0;points=[];autosize=1;strokeColor=none;fillColor=none;" parent="zkfFHV4jXpPFQw0GAbJ--13" vertex="1">
          <mxGeometry y="34" width="180" height="30" as="geometry" />
        </mxCell>
        <mxCell id="Wg26lG1O8rk6EG-U_Jlt-9" style="edgeStyle=orthogonalEdgeStyle;rounded=0;orthogonalLoop=1;jettySize=auto;html=1;exitX=1;exitY=0.25;exitDx=0;exitDy=0;" parent="WIyWlLk6GJQsqaUBKTNV-1" target="Wg26lG1O8rk6EG-U_Jlt-20" edge="1">
          <mxGeometry relative="1" as="geometry">
            <mxPoint x="1058.62" y="483" as="targetPoint" />
            <mxPoint x="952.6199999999999" y="258" as="sourcePoint" />
          </mxGeometry>
        </mxCell>
        <mxCell id="zkfFHV4jXpPFQw0GAbJ--17" value="&lt;&lt;abstract&gt;&gt;&#xa;Cliente&#xa;" style="swimlane;fontStyle=0;align=center;verticalAlign=top;childLayout=stackLayout;horizontal=1;startSize=50;horizontalStack=0;resizeParent=1;resizeLast=0;collapsible=1;marginBottom=0;rounded=0;shadow=0;strokeWidth=1;" parent="WIyWlLk6GJQsqaUBKTNV-1" vertex="1">
          <mxGeometry x="712.62" y="200" width="240" height="160" as="geometry">
            <mxRectangle x="550" y="140" width="160" height="26" as="alternateBounds" />
          </mxGeometry>
        </mxCell>
        <mxCell id="zkfFHV4jXpPFQw0GAbJ--18" value="-nombre: String" style="text;align=left;verticalAlign=top;spacingLeft=4;spacingRight=4;overflow=hidden;rotatable=0;points=[[0,0.5],[1,0.5]];portConstraint=eastwest;" parent="zkfFHV4jXpPFQw0GAbJ--17" vertex="1">
          <mxGeometry y="50" width="240" height="26" as="geometry" />
        </mxCell>
        <mxCell id="zkfFHV4jXpPFQw0GAbJ--19" value="-numeroTelefono:String" style="text;align=left;verticalAlign=top;spacingLeft=4;spacingRight=4;overflow=hidden;rotatable=0;points=[[0,0.5],[1,0.5]];portConstraint=eastwest;rounded=0;shadow=0;html=0;" parent="zkfFHV4jXpPFQw0GAbJ--17" vertex="1">
          <mxGeometry y="76" width="240" height="26" as="geometry" />
        </mxCell>
        <mxCell id="zkfFHV4jXpPFQw0GAbJ--23" value="" style="line;html=1;strokeWidth=1;align=left;verticalAlign=middle;spacingTop=-1;spacingLeft=3;spacingRight=3;rotatable=0;labelPosition=right;points=[];portConstraint=eastwest;" parent="zkfFHV4jXpPFQw0GAbJ--17" vertex="1">
          <mxGeometry y="102" width="240" height="8" as="geometry" />
        </mxCell>
        <mxCell id="zkfFHV4jXpPFQw0GAbJ--25" value="+&lt;&lt;abstract&gt;&gt;aplicarDescuento():Real&#xa;+esIgual(otroCliente:Cliente):Boolean" style="text;align=left;verticalAlign=top;spacingLeft=4;spacingRight=4;overflow=hidden;rotatable=0;points=[[0,0.5],[1,0.5]];portConstraint=eastwest;" parent="zkfFHV4jXpPFQw0GAbJ--17" vertex="1">
          <mxGeometry y="110" width="240" height="50" as="geometry" />
        </mxCell>
        <mxCell id="zkfFHV4jXpPFQw0GAbJ--26" value="" style="endArrow=open;shadow=0;strokeWidth=1;rounded=0;curved=0;endFill=1;edgeStyle=elbowEdgeStyle;elbow=vertical;" parent="WIyWlLk6GJQsqaUBKTNV-1" source="zkfFHV4jXpPFQw0GAbJ--0" target="zkfFHV4jXpPFQw0GAbJ--17" edge="1">
          <mxGeometry x="0.5" y="41" relative="1" as="geometry">
            <mxPoint x="380" y="192" as="sourcePoint" />
            <mxPoint x="540" y="192" as="targetPoint" />
            <mxPoint x="-40" y="32" as="offset" />
          </mxGeometry>
        </mxCell>
        <mxCell id="zkfFHV4jXpPFQw0GAbJ--27" value="0..*" style="resizable=0;align=left;verticalAlign=bottom;labelBackgroundColor=none;fontSize=12;" parent="zkfFHV4jXpPFQw0GAbJ--26" connectable="0" vertex="1">
          <mxGeometry x="-1" relative="1" as="geometry">
            <mxPoint y="4" as="offset" />
          </mxGeometry>
        </mxCell>
        <mxCell id="zkfFHV4jXpPFQw0GAbJ--29" value="clientes" style="text;html=1;resizable=0;points=[];;align=center;verticalAlign=middle;labelBackgroundColor=none;rounded=0;shadow=0;strokeWidth=1;fontSize=12;" parent="zkfFHV4jXpPFQw0GAbJ--26" vertex="1" connectable="0">
          <mxGeometry x="0.5" y="49" relative="1" as="geometry">
            <mxPoint x="-38" y="40" as="offset" />
          </mxGeometry>
        </mxCell>
        <mxCell id="Wg26lG1O8rk6EG-U_Jlt-22" value="0..*" style="resizable=0;align=left;verticalAlign=bottom;labelBackgroundColor=none;fontSize=12;" parent="zkfFHV4jXpPFQw0GAbJ--26" connectable="0" vertex="1">
          <mxGeometry x="-1" relative="1" as="geometry">
            <mxPoint x="500" y="6" as="offset" />
          </mxGeometry>
        </mxCell>
        <mxCell id="Wg26lG1O8rk6EG-U_Jlt-2" value="GestorNumerosDisponibles" style="swimlane;fontStyle=1;align=center;verticalAlign=top;childLayout=stackLayout;horizontal=1;startSize=26;horizontalStack=0;resizeParent=1;resizeParentMax=0;resizeLast=0;collapsible=1;marginBottom=0;whiteSpace=wrap;html=1;" parent="WIyWlLk6GJQsqaUBKTNV-1" vertex="1">
          <mxGeometry x="-300" y="256" width="260" height="190" as="geometry" />
        </mxCell>
        <mxCell id="Wg26lG1O8rk6EG-U_Jlt-3" value="-lineas: String[*]" style="text;strokeColor=none;fillColor=none;align=left;verticalAlign=top;spacingLeft=4;spacingRight=4;overflow=hidden;rotatable=0;points=[[0,0.5],[1,0.5]];portConstraint=eastwest;whiteSpace=wrap;html=1;" parent="Wg26lG1O8rk6EG-U_Jlt-2" vertex="1">
          <mxGeometry y="26" width="260" height="26" as="geometry" />
        </mxCell>
        <mxCell id="Wg26lG1O8rk6EG-U_Jlt-4" value="" style="line;strokeWidth=1;fillColor=none;align=left;verticalAlign=middle;spacingTop=-1;spacingLeft=3;spacingRight=3;rotatable=0;labelPosition=right;points=[];portConstraint=eastwest;strokeColor=inherit;" parent="Wg26lG1O8rk6EG-U_Jlt-2" vertex="1">
          <mxGeometry y="52" width="260" height="8" as="geometry" />
        </mxCell>
        <mxCell id="Wg26lG1O8rk6EG-U_Jlt-5" value="+agregarNumeroTelefono(numero:String)&lt;div style=&quot;background-color:#2f2f2f;padding:0px 0px 0px 2px;&quot;&gt;&lt;div style=&quot;color: rgb(170, 170, 170); font-family: &amp;quot;Courier New&amp;quot;; font-size: 10pt; white-space: pre;&quot;&gt;&lt;p style=&quot;background-color:#373737;margin:0;&quot;&gt;&lt;span style=&quot;color:#d9e8f7;&quot;&gt;&lt;/span&gt;&lt;/p&gt;&lt;/div&gt;&lt;/div&gt;&lt;div&gt;:Boolean&lt;/div&gt;&lt;div&gt;+obtenerNumeroLibre():String&lt;/div&gt;&lt;div&gt;+cambiarTipoGenerador(generador.Generador)&lt;/div&gt;" style="text;strokeColor=none;fillColor=none;align=left;verticalAlign=top;spacingLeft=4;spacingRight=4;overflow=hidden;rotatable=0;points=[[0,0.5],[1,0.5]];portConstraint=eastwest;whiteSpace=wrap;html=1;" parent="Wg26lG1O8rk6EG-U_Jlt-2" vertex="1">
          <mxGeometry y="60" width="260" height="130" as="geometry" />
        </mxCell>
        <mxCell id="Wg26lG1O8rk6EG-U_Jlt-1" style="edgeStyle=orthogonalEdgeStyle;rounded=0;orthogonalLoop=1;jettySize=auto;html=1;exitX=0;exitY=0.5;exitDx=0;exitDy=0;" parent="WIyWlLk6GJQsqaUBKTNV-1" target="Wg26lG1O8rk6EG-U_Jlt-2" edge="1">
          <mxGeometry relative="1" as="geometry">
            <mxPoint x="70" y="320" as="targetPoint" />
            <mxPoint x="220" y="185" as="sourcePoint" />
          </mxGeometry>
        </mxCell>
        <mxCell id="Wg26lG1O8rk6EG-U_Jlt-6" value="1" style="text;html=1;align=center;verticalAlign=middle;resizable=0;points=[];autosize=1;strokeColor=none;fillColor=none;" parent="WIyWlLk6GJQsqaUBKTNV-1" vertex="1">
          <mxGeometry x="-220" y="210" width="30" height="30" as="geometry" />
        </mxCell>
        <mxCell id="Wg26lG1O8rk6EG-U_Jlt-8" value="guia" style="text;html=1;align=center;verticalAlign=middle;resizable=0;points=[];autosize=1;strokeColor=none;fillColor=none;" parent="WIyWlLk6GJQsqaUBKTNV-1" vertex="1">
          <mxGeometry x="150" y="160" width="50" height="30" as="geometry" />
        </mxCell>
        <mxCell id="Wg26lG1O8rk6EG-U_Jlt-20" value="&lt;p style=&quot;margin:0px;margin-top:4px;text-align:center;&quot;&gt;&amp;lt;&amp;lt;abstract&amp;gt;&amp;gt;&lt;br style=&quot;padding: 0px; margin: 0px;&quot;&gt;Llamada&lt;/p&gt;&lt;div style=&quot;padding: 0px; margin: 0px;&quot;&gt;&lt;br style=&quot;padding: 0px; margin: 0px; text-align: center; text-wrap: nowrap;&quot;&gt;&lt;/div&gt;&lt;hr size=&quot;1&quot; style=&quot;border-style:solid;&quot;&gt;&lt;p style=&quot;margin:0px;margin-left:4px;&quot;&gt;- origen: Cliente&lt;/p&gt;&lt;p style=&quot;margin:0px;margin-left:4px;&quot;&gt;- destino: Cliente&lt;/p&gt;&lt;p style=&quot;margin:0px;margin-left:4px;&quot;&gt;-&amp;nbsp; duracion: Integer&lt;/p&gt;&lt;hr size=&quot;1&quot; style=&quot;border-style:solid;&quot;&gt;&lt;p style=&quot;margin:0px;margin-left:4px;&quot;&gt;+ &amp;lt;&amp;lt;abstract&amp;gt;&amp;gt; calcularMontoLlamada():Real&lt;/p&gt;&lt;p style=&quot;margin:0px;margin-left:4px;&quot;&gt;&lt;br&gt;&lt;/p&gt;" style="verticalAlign=top;align=left;overflow=fill;html=1;whiteSpace=wrap;" parent="WIyWlLk6GJQsqaUBKTNV-1" vertex="1">
          <mxGeometry x="1100" y="736" width="250" height="164" as="geometry" />
        </mxCell>
        <mxCell id="Wg26lG1O8rk6EG-U_Jlt-23" value="llamadas" style="text;html=1;align=center;verticalAlign=middle;resizable=0;points=[];autosize=1;strokeColor=none;fillColor=none;rotation=90;" parent="WIyWlLk6GJQsqaUBKTNV-1" vertex="1">
          <mxGeometry x="1206" y="380" width="70" height="30" as="geometry" />
        </mxCell>
        <mxCell id="Wg26lG1O8rk6EG-U_Jlt-24" value="Context" style="text;html=1;align=center;verticalAlign=middle;resizable=0;points=[];autosize=1;strokeColor=none;fillColor=none;" parent="WIyWlLk6GJQsqaUBKTNV-1" vertex="1">
          <mxGeometry x="-145" y="226" width="60" height="30" as="geometry" />
        </mxCell>
        <mxCell id="Wg26lG1O8rk6EG-U_Jlt-27" value="" style="endArrow=diamondThin;endFill=0;endSize=24;html=1;rounded=0;entryX=1;entryY=0.5;entryDx=0;entryDy=0;exitX=0.928;exitY=-0.013;exitDx=0;exitDy=0;exitPerimeter=0;" parent="WIyWlLk6GJQsqaUBKTNV-1" source="Wg26lG1O8rk6EG-U_Jlt-31" target="Wg26lG1O8rk6EG-U_Jlt-3" edge="1">
          <mxGeometry width="160" relative="1" as="geometry">
            <mxPoint x="-60" y="510" as="sourcePoint" />
            <mxPoint x="20" y="342.33000000000004" as="targetPoint" />
            <Array as="points">
              <mxPoint y="490" />
              <mxPoint y="295" />
            </Array>
          </mxGeometry>
        </mxCell>
        <mxCell id="Wg26lG1O8rk6EG-U_Jlt-28" value="tipoGenerador" style="text;html=1;align=center;verticalAlign=middle;resizable=0;points=[];autosize=1;strokeColor=none;fillColor=none;rotation=-90;" parent="WIyWlLk6GJQsqaUBKTNV-1" vertex="1">
          <mxGeometry x="-60" y="400" width="100" height="30" as="geometry" />
        </mxCell>
        <mxCell id="Wg26lG1O8rk6EG-U_Jlt-31" value="&lt;p style=&quot;margin:0px;margin-top:4px;text-align:center;&quot;&gt;&lt;i&gt;&amp;lt;&amp;lt;Interface&amp;gt;&amp;gt;&lt;/i&gt;&lt;br&gt;&lt;b&gt;Generador&lt;/b&gt;&lt;/p&gt;&lt;hr size=&quot;1&quot; style=&quot;border-style:solid;&quot;&gt;&lt;p style=&quot;margin:0px;margin-left:4px;&quot;&gt;+obtenerNumeroLibre():String&lt;/p&gt;" style="verticalAlign=top;align=left;overflow=fill;html=1;whiteSpace=wrap;" parent="WIyWlLk6GJQsqaUBKTNV-1" vertex="1">
          <mxGeometry x="-300" y="490" width="180" height="90" as="geometry" />
        </mxCell>
        <mxCell id="Xx8eTzvYltPEu-yEGiP8-0" value="" style="endArrow=block;dashed=1;endFill=0;endSize=12;html=1;rounded=0;exitX=0.563;exitY=0;exitDx=0;exitDy=0;exitPerimeter=0;" parent="WIyWlLk6GJQsqaUBKTNV-1" source="zkfFHV4jXpPFQw0GAbJ--13" edge="1">
          <mxGeometry width="160" relative="1" as="geometry">
            <mxPoint x="-208" y="693.98" as="sourcePoint" />
            <mxPoint x="-209.43030763387765" y="581" as="targetPoint" />
          </mxGeometry>
        </mxCell>
        <mxCell id="Xx8eTzvYltPEu-yEGiP8-1" value="" style="endArrow=block;dashed=1;endFill=0;endSize=12;html=1;rounded=0;" parent="WIyWlLk6GJQsqaUBKTNV-1" target="Wg26lG1O8rk6EG-U_Jlt-31" edge="1">
          <mxGeometry width="160" relative="1" as="geometry">
            <mxPoint x="-470" y="689" as="sourcePoint" />
            <mxPoint x="-210" y="585" as="targetPoint" />
            <Array as="points">
              <mxPoint x="-470" y="639.5" />
              <mxPoint x="-270" y="639.5" />
              <mxPoint x="-210" y="639.5" />
            </Array>
          </mxGeometry>
        </mxCell>
        <mxCell id="Xx8eTzvYltPEu-yEGiP8-2" value="" style="endArrow=block;dashed=1;endFill=0;endSize=12;html=1;rounded=0;exitX=0.556;exitY=-0.044;exitDx=0;exitDy=0;exitPerimeter=0;entryX=0.5;entryY=1;entryDx=0;entryDy=0;" parent="WIyWlLk6GJQsqaUBKTNV-1" target="Wg26lG1O8rk6EG-U_Jlt-31" edge="1">
          <mxGeometry width="160" relative="1" as="geometry">
            <mxPoint x="8.960000000000036" y="688.0699999999999" as="sourcePoint" />
            <mxPoint x="-210" y="580" as="targetPoint" />
            <Array as="points">
              <mxPoint x="10" y="640" />
              <mxPoint x="-100" y="640" />
              <mxPoint x="-210" y="640" />
            </Array>
          </mxGeometry>
        </mxCell>
        <mxCell id="Xx8eTzvYltPEu-yEGiP8-5" value="Strategy" style="text;html=1;align=center;verticalAlign=middle;resizable=0;points=[];autosize=1;strokeColor=none;fillColor=none;" parent="WIyWlLk6GJQsqaUBKTNV-1" vertex="1">
          <mxGeometry x="-305" y="458" width="70" height="30" as="geometry" />
        </mxCell>
        <mxCell id="Xx8eTzvYltPEu-yEGiP8-6" value="Concrete Strategies" style="text;html=1;align=center;verticalAlign=middle;resizable=0;points=[];autosize=1;strokeColor=none;fillColor=none;" parent="WIyWlLk6GJQsqaUBKTNV-1" vertex="1">
          <mxGeometry x="-520" y="598" width="130" height="30" as="geometry" />
        </mxCell>
        <mxCell id="Xx8eTzvYltPEu-yEGiP8-10" value="" style="endArrow=block;endFill=0;html=1;rounded=0;entryX=0.47;entryY=1.04;entryDx=0;entryDy=0;entryPerimeter=0;exitX=0.5;exitY=0;exitDx=0;exitDy=0;" parent="WIyWlLk6GJQsqaUBKTNV-1" source="Xx8eTzvYltPEu-yEGiP8-11" edge="1">
          <mxGeometry width="160" relative="1" as="geometry">
            <mxPoint x="990" y="506" as="sourcePoint" />
            <mxPoint x="827.0000000000001" y="359.9999999999999" as="targetPoint" />
            <Array as="points">
              <mxPoint x="980" y="438" />
              <mxPoint x="827" y="438" />
            </Array>
          </mxGeometry>
        </mxCell>
        <mxCell id="Xx8eTzvYltPEu-yEGiP8-11" value="&lt;p style=&quot;margin:0px;margin-top:4px;text-align:center;&quot;&gt;&lt;b&gt;Fisico&lt;/b&gt;&lt;/p&gt;&lt;hr size=&quot;1&quot; style=&quot;border-style:solid;&quot;&gt;&lt;p style=&quot;margin:0px;margin-left:4px;&quot;&gt;- dni: String&lt;/p&gt;&lt;hr size=&quot;1&quot; style=&quot;border-style:solid;&quot;&gt;&lt;p style=&quot;margin:0px;margin-left:4px;&quot;&gt;+aplicarDescuento():Real&lt;/p&gt;" style="verticalAlign=top;align=left;overflow=fill;html=1;whiteSpace=wrap;" parent="WIyWlLk6GJQsqaUBKTNV-1" vertex="1">
          <mxGeometry x="900" y="508" width="160" height="90" as="geometry" />
        </mxCell>
        <mxCell id="Xx8eTzvYltPEu-yEGiP8-12" value="&lt;p style=&quot;margin:0px;margin-top:4px;text-align:center;&quot;&gt;&lt;b&gt;Juridico&lt;/b&gt;&lt;/p&gt;&lt;hr size=&quot;1&quot; style=&quot;border-style:solid;&quot;&gt;&lt;p style=&quot;margin:0px;margin-left:4px;&quot;&gt;- cuit: String&lt;/p&gt;&lt;hr size=&quot;1&quot; style=&quot;border-style:solid;&quot;&gt;&lt;p style=&quot;margin:0px;margin-left:4px;&quot;&gt;+ aplicarDescuento():Real&lt;/p&gt;" style="verticalAlign=top;align=left;overflow=fill;html=1;whiteSpace=wrap;" parent="WIyWlLk6GJQsqaUBKTNV-1" vertex="1">
          <mxGeometry x="580" y="508" width="160" height="90" as="geometry" />
        </mxCell>
        <mxCell id="Xx8eTzvYltPEu-yEGiP8-13" value="" style="endArrow=block;endFill=0;html=1;rounded=0;entryX=0.47;entryY=1.04;entryDx=0;entryDy=0;entryPerimeter=0;" parent="WIyWlLk6GJQsqaUBKTNV-1" edge="1">
          <mxGeometry width="160" relative="1" as="geometry">
            <mxPoint x="677" y="502" as="sourcePoint" />
            <mxPoint x="827.0000000000001" y="359.9999999999999" as="targetPoint" />
            <Array as="points">
              <mxPoint x="677" y="438" />
              <mxPoint x="827" y="438" />
            </Array>
          </mxGeometry>
        </mxCell>
        <mxCell id="Xx8eTzvYltPEu-yEGiP8-15" value="&lt;p style=&quot;margin:0px;margin-top:4px;text-align:center;&quot;&gt;&lt;span style=&quot;text-wrap: nowrap;&quot;&gt;&amp;lt;&amp;lt;abstract&amp;gt;&amp;gt;&lt;/span&gt;&lt;br style=&quot;padding: 0px; margin: 0px; text-wrap: nowrap;&quot;&gt;&lt;span style=&quot;text-wrap: nowrap;&quot;&gt;CreadorCLiente&lt;/span&gt;&lt;br&gt;&lt;/p&gt;&lt;hr size=&quot;1&quot; style=&quot;border-style:solid;&quot;&gt;&lt;p style=&quot;margin:0px;margin-left:4px;&quot;&gt;+&amp;lt;&amp;lt;abstract&amp;gt;&amp;gt; crearCliente(nombre:String, numeroTelefono:String, identificacion:String):Cliente&lt;/p&gt;" style="verticalAlign=top;align=left;overflow=fill;html=1;whiteSpace=wrap;" parent="WIyWlLk6GJQsqaUBKTNV-1" vertex="1">
          <mxGeometry x="400" y="710" width="290" height="90" as="geometry" />
        </mxCell>
        <mxCell id="Xx8eTzvYltPEu-yEGiP8-17" value="Creador" style="text;html=1;align=center;verticalAlign=middle;resizable=0;points=[];autosize=1;strokeColor=none;fillColor=none;" parent="WIyWlLk6GJQsqaUBKTNV-1" vertex="1">
          <mxGeometry x="400" y="680" width="70" height="30" as="geometry" />
        </mxCell>
        <mxCell id="Xx8eTzvYltPEu-yEGiP8-18" value="" style="endArrow=block;endFill=0;html=1;rounded=0;entryX=0.47;entryY=1.04;entryDx=0;entryDy=0;entryPerimeter=0;exitX=0.5;exitY=0;exitDx=0;exitDy=0;" parent="WIyWlLk6GJQsqaUBKTNV-1" source="Xx8eTzvYltPEu-yEGiP8-20" edge="1">
          <mxGeometry width="160" relative="1" as="geometry">
            <mxPoint x="665.38" y="930" as="sourcePoint" />
            <mxPoint x="530.0000000000001" y="809.9999999999999" as="targetPoint" />
            <Array as="points">
              <mxPoint x="650" y="920" />
              <mxPoint x="650" y="888" />
              <mxPoint x="530" y="888" />
            </Array>
          </mxGeometry>
        </mxCell>
        <mxCell id="Xx8eTzvYltPEu-yEGiP8-19" value="&lt;p style=&quot;margin:0px;margin-top:4px;text-align:center;&quot;&gt;&lt;b&gt;CreadorPersonaJuridica&lt;/b&gt;&lt;/p&gt;&lt;hr size=&quot;1&quot; style=&quot;border-style:solid;&quot;&gt;&lt;p style=&quot;margin:0px;margin-left:4px;&quot;&gt;&lt;/p&gt;&lt;p style=&quot;margin:0px;margin-left:4px;&quot;&gt;+&lt;span style=&quot;background-color: initial;&quot;&gt;crearCliente(nombre:String, numeroTelefono:String, identificacion:String):Cliente&lt;/span&gt;&lt;/p&gt;" style="verticalAlign=top;align=left;overflow=fill;html=1;whiteSpace=wrap;" parent="WIyWlLk6GJQsqaUBKTNV-1" vertex="1">
          <mxGeometry x="320" y="960" width="160" height="90" as="geometry" />
        </mxCell>
        <mxCell id="Xx8eTzvYltPEu-yEGiP8-20" value="&lt;p style=&quot;margin:0px;margin-top:4px;text-align:center;&quot;&gt;&lt;b&gt;CreadorPersonaFisica&lt;/b&gt;&lt;/p&gt;&lt;hr size=&quot;1&quot; style=&quot;border-style:solid;&quot;&gt;&lt;p style=&quot;margin:0px;margin-left:4px;&quot;&gt;&lt;/p&gt;&lt;p style=&quot;margin:0px;margin-left:4px;&quot;&gt;+crearCliente(nombre:String, numeroTelefono:String, identificacion:String):Cliente&lt;br&gt;&lt;/p&gt;" style="verticalAlign=top;align=left;overflow=fill;html=1;whiteSpace=wrap;" parent="WIyWlLk6GJQsqaUBKTNV-1" vertex="1">
          <mxGeometry x="570" y="958" width="160" height="92" as="geometry" />
        </mxCell>
        <mxCell id="Xx8eTzvYltPEu-yEGiP8-21" value="" style="endArrow=block;endFill=0;html=1;rounded=0;entryX=0.47;entryY=1.04;entryDx=0;entryDy=0;entryPerimeter=0;exitX=0.375;exitY=-0.035;exitDx=0;exitDy=0;exitPerimeter=0;" parent="WIyWlLk6GJQsqaUBKTNV-1" source="Xx8eTzvYltPEu-yEGiP8-19" edge="1">
          <mxGeometry width="160" relative="1" as="geometry">
            <mxPoint x="379.99999999999983" y="999.816" as="sourcePoint" />
            <mxPoint x="530.9200000000001" y="809.9999999999999" as="targetPoint" />
            <Array as="points">
              <mxPoint x="380.92" y="888" />
              <mxPoint x="530.92" y="888" />
            </Array>
          </mxGeometry>
        </mxCell>
        <mxCell id="Xx8eTzvYltPEu-yEGiP8-23" value="Creadores concretos" style="text;html=1;align=center;verticalAlign=middle;resizable=0;points=[];autosize=1;strokeColor=none;fillColor=none;" parent="WIyWlLk6GJQsqaUBKTNV-1" vertex="1">
          <mxGeometry x="380" y="860" width="130" height="30" as="geometry" />
        </mxCell>
        <mxCell id="Xx8eTzvYltPEu-yEGiP8-25" value="" style="endArrow=classic;dashed=1;html=1;rounded=0;exitX=0;exitY=0.5;exitDx=0;exitDy=0;entryX=-0.01;entryY=0.33;entryDx=0;entryDy=0;entryPerimeter=0;endFill=1;" parent="WIyWlLk6GJQsqaUBKTNV-1" target="Xx8eTzvYltPEu-yEGiP8-12" edge="1">
          <mxGeometry width="50" height="50" relative="1" as="geometry">
            <mxPoint x="320" y="1004" as="sourcePoint" />
            <mxPoint x="410" y="639" as="targetPoint" />
            <Array as="points">
              <mxPoint x="290" y="1004" />
              <mxPoint x="290" y="930" />
              <mxPoint x="290" y="789" />
              <mxPoint x="290" y="538" />
            </Array>
          </mxGeometry>
        </mxCell>
        <mxCell id="Xx8eTzvYltPEu-yEGiP8-26" value="" style="endArrow=classic;dashed=1;html=1;rounded=0;exitX=1.021;exitY=0.694;exitDx=0;exitDy=0;endFill=1;exitPerimeter=0;" parent="WIyWlLk6GJQsqaUBKTNV-1" source="Xx8eTzvYltPEu-yEGiP8-20" target="Xx8eTzvYltPEu-yEGiP8-11" edge="1">
          <mxGeometry width="50" height="50" relative="1" as="geometry">
            <mxPoint x="810" y="1064" as="sourcePoint" />
            <mxPoint x="890" y="553" as="targetPoint" />
            <Array as="points">
              <mxPoint x="780" y="1022" />
              <mxPoint x="780" y="990" />
              <mxPoint x="780" y="849" />
              <mxPoint x="780" y="550" />
            </Array>
          </mxGeometry>
        </mxCell>
        <mxCell id="Xx8eTzvYltPEu-yEGiP8-27" value="Producto" style="text;html=1;align=center;verticalAlign=middle;resizable=0;points=[];autosize=1;strokeColor=none;fillColor=none;" parent="WIyWlLk6GJQsqaUBKTNV-1" vertex="1">
          <mxGeometry x="860" y="160" width="70" height="30" as="geometry" />
        </mxCell>
        <mxCell id="Xx8eTzvYltPEu-yEGiP8-28" value="Producto concreto" style="text;html=1;align=center;verticalAlign=middle;resizable=0;points=[];autosize=1;strokeColor=none;fillColor=none;" parent="WIyWlLk6GJQsqaUBKTNV-1" vertex="1">
          <mxGeometry x="840" y="400" width="120" height="30" as="geometry" />
        </mxCell>
        <mxCell id="Xx8eTzvYltPEu-yEGiP8-29" value="&lt;p style=&quot;margin:0px;margin-top:4px;text-align:center;&quot;&gt;&lt;span style=&quot;text-wrap: nowrap;&quot;&gt;&amp;lt;&amp;lt;abstract&amp;gt;&amp;gt;&lt;/span&gt;&lt;br style=&quot;padding: 0px; margin: 0px; text-wrap: nowrap;&quot;&gt;&lt;span style=&quot;text-wrap: nowrap;&quot;&gt;CreadorLlamada&lt;/span&gt;&lt;br&gt;&lt;/p&gt;&lt;hr size=&quot;1&quot; style=&quot;border-style:solid;&quot;&gt;&lt;p style=&quot;margin:0px;margin-left:4px;&quot;&gt;+&amp;lt;&amp;lt;abstract&amp;gt;&amp;gt; crearLlamada(origen:Cliente, destino: Cliente, duracion: Integer):Llamada&lt;/p&gt;" style="verticalAlign=top;align=left;overflow=fill;html=1;whiteSpace=wrap;" parent="WIyWlLk6GJQsqaUBKTNV-1" vertex="1">
          <mxGeometry x="1570" y="620" width="260" height="90" as="geometry" />
        </mxCell>
        <mxCell id="Xx8eTzvYltPEu-yEGiP8-30" value="Creador" style="text;html=1;align=center;verticalAlign=middle;resizable=0;points=[];autosize=1;strokeColor=none;fillColor=none;" parent="WIyWlLk6GJQsqaUBKTNV-1" vertex="1">
          <mxGeometry x="1570" y="590" width="70" height="30" as="geometry" />
        </mxCell>
        <mxCell id="Xx8eTzvYltPEu-yEGiP8-31" value="" style="endArrow=block;endFill=0;html=1;rounded=0;entryX=0.47;entryY=1.04;entryDx=0;entryDy=0;entryPerimeter=0;exitX=0.5;exitY=0;exitDx=0;exitDy=0;" parent="WIyWlLk6GJQsqaUBKTNV-1" source="Xx8eTzvYltPEu-yEGiP8-33" edge="1">
          <mxGeometry width="160" relative="1" as="geometry">
            <mxPoint x="1835.38" y="840" as="sourcePoint" />
            <mxPoint x="1700" y="719.9999999999999" as="targetPoint" />
            <Array as="points">
              <mxPoint x="1830" y="830" />
              <mxPoint x="1830" y="798" />
              <mxPoint x="1700" y="798" />
            </Array>
          </mxGeometry>
        </mxCell>
        <mxCell id="Xx8eTzvYltPEu-yEGiP8-32" value="&lt;p style=&quot;margin:0px;margin-top:4px;text-align:center;&quot;&gt;&lt;b&gt;CreadorLlamadaNacional&lt;/b&gt;&lt;/p&gt;&lt;hr size=&quot;1&quot; style=&quot;border-style:solid;&quot;&gt;&lt;p style=&quot;margin:0px;margin-left:4px;&quot;&gt;&lt;/p&gt;&lt;p style=&quot;margin:0px;margin-left:4px;&quot;&gt;+&lt;span style=&quot;background-color: initial;&quot;&gt;crearLlamada(origen:Cliente, destino: Cliente, duracion: Integer):Llamada&lt;/span&gt;&lt;/p&gt;" style="verticalAlign=top;align=left;overflow=fill;html=1;whiteSpace=wrap;" parent="WIyWlLk6GJQsqaUBKTNV-1" vertex="1">
          <mxGeometry x="1490" y="870" width="160" height="90" as="geometry" />
        </mxCell>
        <mxCell id="Xx8eTzvYltPEu-yEGiP8-33" value="&lt;p style=&quot;margin:0px;margin-top:4px;text-align:center;&quot;&gt;&lt;b&gt;CreadorLlamadaInternacional&lt;/b&gt;&lt;/p&gt;&lt;hr size=&quot;1&quot; style=&quot;border-style:solid;&quot;&gt;&lt;p style=&quot;margin:0px;margin-left:4px;&quot;&gt;&lt;/p&gt;&lt;p style=&quot;margin:0px;margin-left:4px;&quot;&gt;+&lt;span style=&quot;background-color: initial;&quot;&gt;crearLlamada(origen:Cliente, destino: Cliente, duracion: Integer):Llamada&lt;/span&gt;&lt;br&gt;&lt;/p&gt;" style="verticalAlign=top;align=left;overflow=fill;html=1;whiteSpace=wrap;" parent="WIyWlLk6GJQsqaUBKTNV-1" vertex="1">
          <mxGeometry x="1740" y="868" width="180" height="92" as="geometry" />
        </mxCell>
        <mxCell id="Xx8eTzvYltPEu-yEGiP8-34" value="" style="endArrow=block;endFill=0;html=1;rounded=0;entryX=0.47;entryY=1.04;entryDx=0;entryDy=0;entryPerimeter=0;exitX=0.375;exitY=-0.035;exitDx=0;exitDy=0;exitPerimeter=0;" parent="WIyWlLk6GJQsqaUBKTNV-1" source="Xx8eTzvYltPEu-yEGiP8-32" edge="1">
          <mxGeometry width="160" relative="1" as="geometry">
            <mxPoint x="1549.9999999999998" y="909.816" as="sourcePoint" />
            <mxPoint x="1700.92" y="719.9999999999999" as="targetPoint" />
            <Array as="points">
              <mxPoint x="1550.92" y="798" />
              <mxPoint x="1700.92" y="798" />
            </Array>
          </mxGeometry>
        </mxCell>
        <mxCell id="Xx8eTzvYltPEu-yEGiP8-35" value="Creadores concretos" style="text;html=1;align=center;verticalAlign=middle;resizable=0;points=[];autosize=1;strokeColor=none;fillColor=none;" parent="WIyWlLk6GJQsqaUBKTNV-1" vertex="1">
          <mxGeometry x="1550" y="770" width="130" height="30" as="geometry" />
        </mxCell>
        <mxCell id="Xx8eTzvYltPEu-yEGiP8-36" value="" style="endArrow=block;endFill=0;html=1;rounded=0;entryX=0.47;entryY=1.04;entryDx=0;entryDy=0;entryPerimeter=0;exitX=0.46;exitY=-0.013;exitDx=0;exitDy=0;exitPerimeter=0;" parent="WIyWlLk6GJQsqaUBKTNV-1" source="Xx8eTzvYltPEu-yEGiP8-37" edge="1">
          <mxGeometry width="160" relative="1" as="geometry">
            <mxPoint x="1335" y="1054" as="sourcePoint" />
            <mxPoint x="1172" y="907.9999999999999" as="targetPoint" />
            <Array as="points">
              <mxPoint x="1325" y="986" />
              <mxPoint x="1172" y="986" />
            </Array>
          </mxGeometry>
        </mxCell>
        <mxCell id="Xx8eTzvYltPEu-yEGiP8-37" value="&lt;p style=&quot;margin:0px;margin-top:4px;text-align:center;&quot;&gt;&lt;b&gt;Internacional&lt;/b&gt;&lt;/p&gt;&lt;hr size=&quot;1&quot; style=&quot;border-style:solid;&quot;&gt;&lt;p style=&quot;margin:0px;margin-left:4px;&quot;&gt;&lt;/p&gt;&lt;p style=&quot;margin:0px;margin-left:4px;&quot;&gt;+&lt;span style=&quot;background-color: initial;&quot;&gt;calcularMontoLlamada():Real&lt;/span&gt;&lt;/p&gt;&lt;p style=&quot;margin: 0px 0px 0px 4px;&quot;&gt;&lt;br&gt;&lt;/p&gt;" style="verticalAlign=top;align=left;overflow=fill;html=1;whiteSpace=wrap;" parent="WIyWlLk6GJQsqaUBKTNV-1" vertex="1">
          <mxGeometry x="1245" y="1056" width="175" height="90" as="geometry" />
        </mxCell>
        <mxCell id="Xx8eTzvYltPEu-yEGiP8-38" value="&lt;p style=&quot;margin:0px;margin-top:4px;text-align:center;&quot;&gt;&lt;b&gt;Nacional&lt;/b&gt;&lt;/p&gt;&lt;hr size=&quot;1&quot; style=&quot;border-style:solid;&quot;&gt;&lt;p style=&quot;margin:0px;margin-left:4px;&quot;&gt;&lt;/p&gt;&lt;p style=&quot;margin:0px;margin-left:4px;&quot;&gt;+&amp;nbsp;&lt;span style=&quot;background-color: initial;&quot;&gt;calcularMontoLlamada():Real&lt;/span&gt;&lt;/p&gt;&lt;p style=&quot;margin: 0px 0px 0px 4px;&quot;&gt;&lt;br&gt;&lt;/p&gt;" style="verticalAlign=top;align=left;overflow=fill;html=1;whiteSpace=wrap;" parent="WIyWlLk6GJQsqaUBKTNV-1" vertex="1">
          <mxGeometry x="925" y="1056" width="195" height="84" as="geometry" />
        </mxCell>
        <mxCell id="Xx8eTzvYltPEu-yEGiP8-39" value="" style="endArrow=block;endFill=0;html=1;rounded=0;entryX=0.47;entryY=1.04;entryDx=0;entryDy=0;entryPerimeter=0;" parent="WIyWlLk6GJQsqaUBKTNV-1" edge="1">
          <mxGeometry width="160" relative="1" as="geometry">
            <mxPoint x="1022" y="1050" as="sourcePoint" />
            <mxPoint x="1172" y="907.9999999999999" as="targetPoint" />
            <Array as="points">
              <mxPoint x="1022" y="986" />
              <mxPoint x="1172" y="986" />
            </Array>
          </mxGeometry>
        </mxCell>
        <mxCell id="Xx8eTzvYltPEu-yEGiP8-40" value="Producto concreto" style="text;html=1;align=center;verticalAlign=middle;resizable=0;points=[];autosize=1;strokeColor=none;fillColor=none;" parent="WIyWlLk6GJQsqaUBKTNV-1" vertex="1">
          <mxGeometry x="1190" y="958" width="120" height="30" as="geometry" />
        </mxCell>
        <mxCell id="Xx8eTzvYltPEu-yEGiP8-41" value="Producto" style="text;html=1;align=center;verticalAlign=middle;resizable=0;points=[];autosize=1;strokeColor=none;fillColor=none;" parent="WIyWlLk6GJQsqaUBKTNV-1" vertex="1">
          <mxGeometry x="1245" y="698" width="70" height="30" as="geometry" />
        </mxCell>
        <mxCell id="Xx8eTzvYltPEu-yEGiP8-42" value="" style="endArrow=classic;dashed=1;html=1;rounded=0;endFill=1;entryX=0.699;entryY=1.091;entryDx=0;entryDy=0;entryPerimeter=0;" parent="WIyWlLk6GJQsqaUBKTNV-1" target="Xx8eTzvYltPEu-yEGiP8-38" edge="1">
          <mxGeometry width="50" height="50" relative="1" as="geometry">
            <mxPoint x="1490" y="920" as="sourcePoint" />
            <mxPoint x="1537" y="672" as="targetPoint" />
            <Array as="points">
              <mxPoint x="1450" y="920" />
              <mxPoint x="1450" y="1230" />
              <mxPoint x="1280" y="1230" />
              <mxPoint x="1061" y="1230" />
            </Array>
          </mxGeometry>
        </mxCell>
        <mxCell id="Xx8eTzvYltPEu-yEGiP8-43" value="" style="endArrow=classic;dashed=1;html=1;rounded=0;endFill=1;entryX=0.699;entryY=1.091;entryDx=0;entryDy=0;entryPerimeter=0;" parent="WIyWlLk6GJQsqaUBKTNV-1" edge="1">
          <mxGeometry width="50" height="50" relative="1" as="geometry">
            <mxPoint x="1740" y="920" as="sourcePoint" />
            <mxPoint x="1311" y="1148" as="targetPoint" />
            <Array as="points">
              <mxPoint x="1700" y="920" />
              <mxPoint x="1700" y="1230" />
              <mxPoint x="1530" y="1230" />
              <mxPoint x="1311" y="1230" />
            </Array>
          </mxGeometry>
        </mxCell>
        <mxCell id="C6rPXKQVcsXr_89lkJPm-0" value="Ultimo" style="swimlane;fontStyle=0;align=center;verticalAlign=top;childLayout=stackLayout;horizontal=1;startSize=26;horizontalStack=0;resizeParent=1;resizeLast=0;collapsible=1;marginBottom=0;rounded=0;shadow=0;strokeWidth=1;" vertex="1" parent="WIyWlLk6GJQsqaUBKTNV-1">
          <mxGeometry x="-80" y="691" width="180" height="80" as="geometry">
            <mxRectangle x="130" y="380" width="160" height="26" as="alternateBounds" />
          </mxGeometry>
        </mxCell>
        <mxCell id="C6rPXKQVcsXr_89lkJPm-1" value="" style="line;html=1;strokeWidth=1;align=left;verticalAlign=middle;spacingTop=-1;spacingLeft=3;spacingRight=3;rotatable=0;labelPosition=right;points=[];portConstraint=eastwest;" vertex="1" parent="C6rPXKQVcsXr_89lkJPm-0">
          <mxGeometry y="26" width="180" height="8" as="geometry" />
        </mxCell>
        <mxCell id="C6rPXKQVcsXr_89lkJPm-2" value="+obtenerNumeroLibre():String" style="text;align=left;verticalAlign=top;spacingLeft=4;spacingRight=4;overflow=hidden;rotatable=0;points=[[0,0.5],[1,0.5]];portConstraint=eastwest;fontStyle=0" vertex="1" parent="C6rPXKQVcsXr_89lkJPm-0">
          <mxGeometry y="34" width="180" height="26" as="geometry" />
        </mxCell>
        <mxCell id="C6rPXKQVcsXr_89lkJPm-3" value="creates" style="text;html=1;align=center;verticalAlign=middle;resizable=0;points=[];autosize=1;strokeColor=none;fillColor=none;" vertex="1" parent="WIyWlLk6GJQsqaUBKTNV-1">
          <mxGeometry x="320" y="508" width="60" height="30" as="geometry" />
        </mxCell>
        <mxCell id="C6rPXKQVcsXr_89lkJPm-4" value="creates" style="text;html=1;align=center;verticalAlign=middle;resizable=0;points=[];autosize=1;strokeColor=none;fillColor=none;" vertex="1" parent="WIyWlLk6GJQsqaUBKTNV-1">
          <mxGeometry x="780" y="662" width="60" height="30" as="geometry" />
        </mxCell>
        <mxCell id="C6rPXKQVcsXr_89lkJPm-5" value="creates" style="text;html=1;align=center;verticalAlign=middle;resizable=0;points=[];autosize=1;strokeColor=none;fillColor=none;" vertex="1" parent="WIyWlLk6GJQsqaUBKTNV-1">
          <mxGeometry x="1440" y="1028" width="60" height="30" as="geometry" />
        </mxCell>
        <mxCell id="C6rPXKQVcsXr_89lkJPm-6" value="creates" style="text;html=1;align=center;verticalAlign=middle;resizable=0;points=[];autosize=1;strokeColor=none;fillColor=none;" vertex="1" parent="WIyWlLk6GJQsqaUBKTNV-1">
          <mxGeometry x="1700" y="1020" width="60" height="30" as="geometry" />
        </mxCell>
        <mxCell id="C6rPXKQVcsXr_89lkJPm-7" value="&lt;div&gt;public Cliente crearCliente(String nombre, String numeroTelefono, String identificacion) {&lt;/div&gt;&lt;div&gt;&lt;span style=&quot;white-space: pre;&quot;&gt;&#x9;&lt;/span&gt;return new PersonaFisica(nombre,numeroTelefono,identificacion);&lt;span style=&quot;&quot;&gt;&lt;/span&gt;&lt;/div&gt;&lt;div style=&quot;&quot;&gt;&lt;span style=&quot;&quot;&gt;&lt;span style=&quot;&quot;&gt;&lt;span style=&quot;white-space: pre;&quot;&gt;&amp;nbsp;&amp;nbsp;&amp;nbsp;&amp;nbsp;&lt;/span&gt;&lt;/span&gt;}&lt;/span&gt;&lt;/div&gt;" style="shape=note;whiteSpace=wrap;html=1;backgroundOutline=1;darkOpacity=0.05;align=left;" vertex="1" parent="WIyWlLk6GJQsqaUBKTNV-1">
          <mxGeometry x="340" y="1169" width="460" height="76" as="geometry" />
        </mxCell>
        <mxCell id="C6rPXKQVcsXr_89lkJPm-10" value="" style="group" vertex="1" connectable="0" parent="WIyWlLk6GJQsqaUBKTNV-1">
          <mxGeometry x="605" y="1037" width="10" height="130" as="geometry" />
        </mxCell>
        <mxCell id="C6rPXKQVcsXr_89lkJPm-8" value="" style="endArrow=none;dashed=1;html=1;dashPattern=1 3;strokeWidth=2;rounded=0;" edge="1" parent="C6rPXKQVcsXr_89lkJPm-10">
          <mxGeometry width="50" height="50" relative="1" as="geometry">
            <mxPoint x="5" y="129.99999999999997" as="sourcePoint" />
            <mxPoint x="5" y="16.956521739130434" as="targetPoint" />
          </mxGeometry>
        </mxCell>
        <mxCell id="C6rPXKQVcsXr_89lkJPm-9" value="" style="ellipse;whiteSpace=wrap;html=1;aspect=fixed;" vertex="1" parent="C6rPXKQVcsXr_89lkJPm-10">
          <mxGeometry width="9.285714285714286" height="9.285714285714286" as="geometry" />
        </mxCell>
        <mxCell id="C6rPXKQVcsXr_89lkJPm-11" value="&lt;div&gt;public Cliente crearCliente(String nombre, String numeroTelefono, String identificacion) {&lt;span style=&quot;&quot;&gt;&lt;/span&gt;&lt;/div&gt;&lt;div&gt;&lt;span style=&quot;&quot;&gt;&lt;span style=&quot;&quot;&gt;&lt;span style=&quot;white-space: pre;&quot;&gt;&amp;nbsp;&amp;nbsp;&amp;nbsp;&amp;nbsp;&lt;/span&gt;&lt;span style=&quot;white-space: pre;&quot;&gt;&amp;nbsp;&amp;nbsp;&amp;nbsp;&amp;nbsp;&lt;/span&gt;&lt;/span&gt;return new PersonaJuridica(nombre,numeroTelefono,identificacion);&lt;/span&gt;&lt;/div&gt;&lt;div&gt;&lt;span style=&quot;&quot;&gt;&lt;span style=&quot;&quot;&gt;&lt;span style=&quot;white-space: pre;&quot;&gt;&amp;nbsp;&amp;nbsp;&amp;nbsp;&amp;nbsp;&lt;/span&gt;&lt;/span&gt;}&lt;/span&gt;&lt;/div&gt;" style="shape=note;whiteSpace=wrap;html=1;backgroundOutline=1;darkOpacity=0.05;align=left;" vertex="1" parent="WIyWlLk6GJQsqaUBKTNV-1">
          <mxGeometry x="-150" y="1093" width="460" height="76" as="geometry" />
        </mxCell>
        <mxCell id="C6rPXKQVcsXr_89lkJPm-15" value="" style="endArrow=none;dashed=1;html=1;dashPattern=1 3;strokeWidth=2;rounded=0;exitX=0;exitY=0;exitDx=445;exitDy=15;exitPerimeter=0;entryX=0.25;entryY=1;entryDx=0;entryDy=0;" edge="1" parent="WIyWlLk6GJQsqaUBKTNV-1" source="C6rPXKQVcsXr_89lkJPm-11" target="Xx8eTzvYltPEu-yEGiP8-19">
          <mxGeometry width="50" height="50" relative="1" as="geometry">
            <mxPoint x="220" y="1090" as="sourcePoint" />
            <mxPoint x="270" y="1040" as="targetPoint" />
          </mxGeometry>
        </mxCell>
        <mxCell id="C6rPXKQVcsXr_89lkJPm-16" value="" style="ellipse;whiteSpace=wrap;html=1;aspect=fixed;" vertex="1" parent="WIyWlLk6GJQsqaUBKTNV-1">
          <mxGeometry x="360" y="1040" width="10" height="10" as="geometry" />
        </mxCell>
        <mxCell id="C6rPXKQVcsXr_89lkJPm-17" value="&lt;div&gt;public Llamada crearLlamada(Cliente origen, Cliente destino, int duracion) {&lt;span style=&quot;&quot;&gt;&lt;/span&gt;&lt;/div&gt;&lt;div&gt;&lt;span style=&quot;&quot;&gt;&lt;span style=&quot;&quot;&gt;&lt;span style=&quot;white-space: pre;&quot;&gt;&amp;nbsp;&amp;nbsp;&amp;nbsp;&amp;nbsp;&lt;/span&gt;&lt;span style=&quot;white-space: pre;&quot;&gt;&amp;nbsp;&amp;nbsp;&amp;nbsp;&amp;nbsp;&lt;/span&gt;&lt;/span&gt;return new Internacional(origen,destino,duracion);&lt;/span&gt;&lt;/div&gt;&lt;div&gt;&lt;span style=&quot;&quot;&gt;&lt;span style=&quot;&quot;&gt;&lt;span style=&quot;white-space: pre;&quot;&gt;&amp;nbsp;&amp;nbsp;&amp;nbsp;&amp;nbsp;&lt;/span&gt;&lt;/span&gt;}&lt;/span&gt;&lt;/div&gt;" style="shape=note;whiteSpace=wrap;html=1;backgroundOutline=1;darkOpacity=0.05;align=left;" vertex="1" parent="WIyWlLk6GJQsqaUBKTNV-1">
          <mxGeometry x="1838" y="1005" width="460" height="76" as="geometry" />
        </mxCell>
        <mxCell id="C6rPXKQVcsXr_89lkJPm-18" value="" style="endArrow=none;dashed=1;html=1;dashPattern=1 3;strokeWidth=2;rounded=0;exitX=0;exitY=0;exitDx=215;exitDy=0;exitPerimeter=0;entryX=1;entryY=0.75;entryDx=0;entryDy=0;edgeStyle=orthogonalEdgeStyle;" edge="1" parent="WIyWlLk6GJQsqaUBKTNV-1" source="C6rPXKQVcsXr_89lkJPm-17" target="Xx8eTzvYltPEu-yEGiP8-33">
          <mxGeometry width="50" height="50" relative="1" as="geometry">
            <mxPoint x="1420" y="1090" as="sourcePoint" />
            <mxPoint x="1470" y="1040" as="targetPoint" />
          </mxGeometry>
        </mxCell>
        <mxCell id="C6rPXKQVcsXr_89lkJPm-19" value="" style="ellipse;whiteSpace=wrap;html=1;aspect=fixed;" vertex="1" parent="WIyWlLk6GJQsqaUBKTNV-1">
          <mxGeometry x="1910" y="933" width="10" height="10" as="geometry" />
        </mxCell>
        <mxCell id="C6rPXKQVcsXr_89lkJPm-20" value="&lt;div&gt;public Llamada crearLlamada(Cliente origen, Cliente destino, int duracion) {&lt;span style=&quot;&quot;&gt;&lt;/span&gt;&lt;/div&gt;&lt;div&gt;&lt;span style=&quot;&quot;&gt;&lt;span style=&quot;&quot;&gt;&lt;span style=&quot;white-space: pre;&quot;&gt;&amp;nbsp;&amp;nbsp;&amp;nbsp;&amp;nbsp;&lt;/span&gt;&lt;span style=&quot;white-space: pre;&quot;&gt;&amp;nbsp;&amp;nbsp;&amp;nbsp;&amp;nbsp;&lt;/span&gt;&lt;/span&gt;return new Nacional(origen,destino,duracion);&lt;/span&gt;&lt;/div&gt;&lt;div&gt;&lt;span style=&quot;&quot;&gt;&lt;span style=&quot;&quot;&gt;&lt;span style=&quot;white-space: pre;&quot;&gt;&amp;nbsp;&amp;nbsp;&amp;nbsp;&amp;nbsp;&lt;/span&gt;&lt;/span&gt;}&lt;/span&gt;&lt;/div&gt;" style="shape=note;whiteSpace=wrap;html=1;backgroundOutline=1;darkOpacity=0.05;align=left;" vertex="1" parent="WIyWlLk6GJQsqaUBKTNV-1">
          <mxGeometry x="1350" y="1280" width="460" height="76" as="geometry" />
        </mxCell>
        <mxCell id="C6rPXKQVcsXr_89lkJPm-21" value="" style="endArrow=none;dashed=1;html=1;dashPattern=1 3;strokeWidth=2;rounded=0;exitX=0;exitY=0;exitDx=215;exitDy=0;exitPerimeter=0;entryX=0.5;entryY=1;entryDx=0;entryDy=0;" edge="1" parent="WIyWlLk6GJQsqaUBKTNV-1" source="C6rPXKQVcsXr_89lkJPm-20" target="Xx8eTzvYltPEu-yEGiP8-32">
          <mxGeometry width="50" height="50" relative="1" as="geometry">
            <mxPoint x="1700" y="1130" as="sourcePoint" />
            <mxPoint x="1750" y="1080" as="targetPoint" />
          </mxGeometry>
        </mxCell>
        <mxCell id="C6rPXKQVcsXr_89lkJPm-22" value="" style="ellipse;whiteSpace=wrap;html=1;aspect=fixed;" vertex="1" parent="WIyWlLk6GJQsqaUBKTNV-1">
          <mxGeometry x="1565" y="950" width="10" height="10" as="geometry" />
        </mxCell>
      </root>
    </mxGraphModel>
  </diagram>
</mxfile>
